# xmcd
#
# Track frame offsets:
# 150
# 13310
# 30362
# 44532
# 57292
# 69252
# 80632
# 92332
# 104840
# 115430
# 131705
# 178657
# 191085
# 200802
# 213542
# 227165
# 239190
# 251122
# 271855
# 295330
# 317460
# 330992
#
# Disc length: 4582 seconds
#
#
# Revision: 6
# Processed by: cddbd v1.5.1PL0 Copyright (c) Steve Scherf et al.
# Submitted via: FreeRIP 2.942 
#
DISCID=5211e416
DTITLE=Various Artist - Blues Master - The Essential Blues Collection
DYEAR=1986
DGENRE=Blues
TTITLE0=Jimmy Witherspoon - Ain't Nobody's Business
TTITLE1=T-Bone Walker - T-Bone Blues
TTITLE2=Albert King - Laundromat Blues
TTITLE3=Baby Face Leroy Trio - Rollin' and Tumblin' Part 1
TTITLE4=Otis Rush - All Your Love (I Miss Loving)
TTITLE5=Johnny Shines - Evening Sun
TTITLE6=Junior Wells - Little By Little
TTITLE7=Lightnin' Hopkins - Short-Haired Woman
TTITLE8=Albert Collins and his Rhythm Rockers - The Freeze
TTITLE9=Freddie King - The Stumble
TTITLE10=Stevie Ray Vaughan - Flood Down in Texas
TTITLE11=Lazy Lester - Sugar Coated Love
TTITLE12=Jerry McCain - Steady
TTITLE13=Slim Harpo - I Got Love If You Want It
TTITLE14=Joe Turner - Shake, Rattle, And Roll
TTITLE15=Little Johnnie Jones - Hoy Hoy
TTITLE16=Ruth Brown - Hello Little Boy
TTITLE17=Koko Taylor - I'm A Woman
TTITLE18=Albert Collins - Master Charge
TTITLE19=Johnny Winter - Mojo Boogie (aka The Mojo)
TTITLE20=Little Junior's Blues Flames - Feelin' Good
TTITLE21=Rufus "Hound Dog" Thomas, Jr. - Bear Cat
EXTD=YEAR: 1986
EXTT0=Jimmy Witherspoon
EXTT1=T-Bone Walker
EXTT2=Albert King
EXTT3=Baby Face Leroy Trio
EXTT4=Otis Rush
EXTT5=Johnny Shines
EXTT6=Junior Wells
EXTT7=Lightnin' Hopkins
EXTT8=Albert Collins And His Rhythm Rockes
EXTT9=Freddy King
EXTT10=Stevie Ray Vaughn
EXTT11=Lazy Lester
EXTT12=Jerry McCain
EXTT13=Slim Harpo
EXTT14=Joe Turner
EXTT15=Little Johnnie Jones
EXTT16=Ruth Brown
EXTT17=Koko Taylor
EXTT18=Albert Collins
EXTT19=Johnny Winter
EXTT20=Little Junior's Blue Flames
EXTT21=Rufus 'Hound Dog' Thomas, Jr.
PLAYORDER=
